PathFileType	4	(X/Y/Z)	C:\Users\Basilio\Documents\Thesis Gigler\squatting_fais\c3dfiles\019\SLS_front_pre1\markers_experimental.trc
DataRate	CameraRate	NumFrames	NumMarkers	Units	OrigDataRate	OrigDataStartFrame	OrigNumFrames
200.000000	200.000000	4	59	mm	200.000000	1427	1631
Frame#	Time	LBHD			RBHD			C7			T10			CLAV			LSHO			LUUPA			LMUPA			LDUPA			LLEP			LMEP			LRAD			LUL			LRFIN			RSHO			RUPA1			RMUPA			RDUPA			RLEP			RRAD			RUL			RUFIN			LASI			RASI			USACR			LSACR			RSACR			LTHI1			LTHI2			LTHI3			LTHI4			LLFC			LTIB1			LTIB2			LTIB3			LTIB4			LLMAL			LMMAL			LHEE			LMT1			LMT2			LMT5			RTHI			RTHI3			RTHI4			RLFC			RTIB1			RTIB2			RTIB3			RTIB4			RLMAL			RMMAL			RHEE			RMT1			RMT2			RMT5			FHD			RTHI2			RMEP			
		X1	Y1	Z1	X2	Y2	Z2	X3	Y3	Z3	X4	Y4	Z4	X5	Y5	Z5	X6	Y6	Z6	X7	Y7	Z7	X8	Y8	Z8	X9	Y9	Z9	X10	Y10	Z10	X11	Y11	Z11	X12	Y12	Z12	X13	Y13	Z13	X14	Y14	Z14	X15	Y15	Z15	X16	Y16	Z16	X17	Y17	Z17	X18	Y18	Z18	X19	Y19	Z19	X20	Y20	Z20	X21	Y21	Z21	X22	Y22	Z22	X23	Y23	Z23	X24	Y24	Z24	X25	Y25	Z25	X26	Y26	Z26	X27	Y27	Z27	X28	Y28	Z28	X29	Y29	Z29	X30	Y30	Z30	X31	Y31	Z31	X32	Y32	Z32	X33	Y33	Z33	X34	Y34	Z34	X35	Y35	Z35	X36	Y36	Z36	X37	Y37	Z37	X38	Y38	Z38	X39	Y39	Z39	X40	Y40	Z40	X41	Y41	Z41	X42	Y42	Z42	X43	Y43	Z43	X44	Y44	Z44	X45	Y45	Z45	X46	Y46	Z46	X47	Y47	Z47	X48	Y48	Z48	X49	Y49	Z49	X50	Y50	Z50	X51	Y51	Z51	X52	Y52	Z52	X53	Y53	Z53	X54	Y54	Z54	X55	Y55	Z55	X56	Y56	Z56	X57	Y57	Z57	X58	Y58	Z58	X59	Y59	Z59	

1428	7.135	-419.5147705078126	1685.446044921875	-841.6125488281252	-408.6037597656251	1686.129638671875	-702.0946655273439	-428.5156860351564	1510.023559570313	-767.2651367187501	-437.8088378906251	1214.130493164063	-757.9793090820314	-288.4122924804688	1472.648315429688	-773.4022216796877	-358.6006469726563	1505.933959960938	-923.2769165039065	-299.6985778808594	1367.498046875	-1004.804443359375	-259.3955688476563	1354.550903320313	-978.976989746094	-262.2281799316407	1315.752563476563	-1025.320190429688	-253.0883178710938	1233.673095703125	-1056.258544921875	-271.6445312500001	1192.413208007813	-1007.871520996094	-3.452535629272462	1201.369873046875	-988.1629028320315	-17.34567642211914	1161.080078125	-1038.166748046875	67.37493896484376	1206.214233398438	-1003.319702148438	-342.2966003417969	1497.6875	-627.3715820312501	-316.7271728515626	1326.819458007813	-525.8538818359376	-268.8493041992188	1334.607177734375	-532.3918457031251	-271.9104919433594	1276.796630859375	-508.2688598632814	-217.7721405029297	1221.814086914063	-496.3026123046876	15.09620094299317	1207.373413085938	-605.4279174804689	22.88633155822754	1169.617919921875	-550.3160400390626	91.10784912109376	1213.368041992188	-590.9357299804689	-283.7345886230469	1030.069946289063	-888.4434204101565	-259.4519958496094	1006.773132324219	-680.3834228515626	-430.721160888672	1085.890991210938	-762.7995605468751	-439.5443420410157	1055.368774414063	-792.856384277344	-429.9384765625001	1052.969970703125	-736.1289062500001	-244.457504272461	801.695983886719	-986.6572265625002	-171.6882019042969	756.2903442382814	-988.449401855469	-135.9021911621094	778.9019775390627	-966.704528808594	-166.3688201904297	695.1939697265626	-989.1791992187502	-134.587890625	608.4321289062501	-983.0269775390627	-125.1877899169922	461.7563781738282	-963.338806152344	-192.7327117919922	447.0652770996095	-1018.103820800781	-160.6912841796875	428.5355529785157	-995.135192871094	-195.4296112060547	354.1157836914063	-965.5874023437502	-308.5654602050782	266.7657775878907	-997.4861450195315	-288.7536315917969	259.8889160156251	-916.0693359375002	-383.5107727050782	261.7323303222657	-946.3466796875002	-212.3759765625001	133.9536285400391	-938.549987792969	-208.1642456054688	135.7119903564453	-976.4907226562502	-257.2803039550782	138.9306335449219	-1026.634887695313	-302.0635681152344	803.8604125976565	-617.1228027343751	-238.9712982177735	758.0154418945314	-651.0972290039064	-290.4980468750001	674.6037597656251	-626.6248779296876	-329.1476135253907	515.1074829101564	-660.3447265625001	-296.9988098144532	335.6653137207032	-728.9040527343751	-348.1629943847657	255.2124786376954	-672.4107666015626	-315.9471435546876	252.8906402587891	-707.7641601562501	-331.6463623046876	213.6671447753907	-749.0512084960939	-392.2845764160157	128.6998291015625	-704.4803466796876	-378.5660095214844	133.5892944335938	-778.6203613281252	-455.8491821289064	105.7644882202149	-750.4121704101564	-257.8278808593751	52.75083541870119	-780.958923339844	-252.4905853271485	59.97468185424806	-736.5633544921876	-290.6924438476563	51.25349044799806	-680.1563720703126	-277.6331481933594	1737.74609375	-714.8062133789064	-263.2119750976563	750.8173217773439	-628.0235595703126	-246.6906738281251	1185.751831054688	-537.0007324218751	
1429	7.140000000000001	-419.519744873047	1685.142700195313	-841.9885253906252	-408.2744445800782	1685.64404296875	-702.4780883789064	-427.6842346191407	1510.038330078125	-768.0035400390627	-437.0802612304689	1214.078857421875	-758.9280395507814	-287.6884460449219	1472.470825195313	-773.960144042969	-357.5924682617188	1505.516235351563	-924.3378906250002	-300.6576232910157	1365.2099609375	-1005.355407714844	-260.4484252929688	1351.69921875	-979.786560058594	-264.3693237304688	1312.791137695313	-1025.679565429688	-257.3877258300782	1230.388305664063	-1056.099609375	-275.9357910156251	1189.695068359375	-1007.225952148438	-7.466052055358888	1193.360229492188	-989.7861938476565	-22.80615425109864	1152.99072265625	-1039.369262695313	63.4000587463379	1196.017456054688	-1005.526000976563	-341.6732177734376	1497.413452148438	-627.7657470703126	-318.6071777343751	1324.907592773438	-526.9338989257814	-270.2244873046876	1331.993530273438	-533.0474853515626	-274.8045654296876	1274.17626953125	-509.5945129394532	-221.8446197509766	1217.998413085938	-497.7685546875001	11.3498125076294	1198.843994140625	-605.3092651367189	17.59713363647461	1160.6005859375	-550.2885742187501	89.68023681640626	1203.137451171875	-597.5544433593751	-282.8038024902344	1029.92431640625	-889.1231689453127	-259.0319824218751	1006.8857421875	-680.9518432617189	-430.2530212402345	1085.772338867188	-763.6084594726564	-438.6494140625001	1055.249267578125	-793.8085937500002	-429.369598388672	1053.120971679688	-736.9815063476564	-245.1094360351563	800.3082275390627	-987.5120239257815	-173.0041198730469	754.2858276367189	-989.5018310546877	-136.5228729248047	776.2658691406252	-967.8763427734377	-168.1152038574219	693.0353393554689	-989.8554687500002	-136.9833221435547	605.9260253906251	-983.658874511719	-127.9883193969727	459.1889648437501	-964.0854492187502	-194.8965454101563	444.1890563964845	-1019.232116699219	-163.1570587158203	425.8713378906251	-996.0408325195315	-198.1150817871094	351.6531066894532	-966.4126586914065	-310.3161315917969	263.8530578613282	-998.3274536132815	-291.4419860839844	257.1956787109376	-917.2484130859377	-386.063934326172	258.9271240234376	-947.637145996094	-214.7681579589844	131.2508544921875	-939.534118652344	-210.8027801513672	133.114486694336	-977.409362792969	-259.8017883300782	136.3828277587891	-1027.870727539063	-301.7735595703126	803.9653930664065	-617.7097778320314	-238.8164520263672	757.9149169921876	-651.4982299804689	-290.3198547363282	674.6651000976564	-627.0285644531251	-329.0336303710938	515.1773071289064	-660.7036132812501	-296.7919311523438	335.4957580566407	-729.0786132812501	-348.0769653320313	255.2229919433594	-672.5740966796876	-315.8763122558594	252.8909454345704	-707.8406372070314	-331.6235046386719	213.674545288086	-749.1584472656251	-392.2557373046876	128.7430419921875	-704.5150146484376	-379.5759277343751	134.0006561279297	-779.3814086914065	-455.9212951660157	105.7394714355469	-750.4196166992189	-257.8849487304688	52.74233245849611	-780.9810791015627	-252.4905700683594	59.97464752197267	-736.5633544921876	-290.6560058593751	51.2164764404297	-680.1223754882814	-277.1749877929688	1738.062377929688	-715.2158203125001	-262.8917236328126	750.8913574218751	-628.5769042968751	-251.3365783691407	1182.7783203125	-538.7611083984376	
1430	7.145	-419.4302062988282	1684.782470703125	-842.421813964844	-407.9439392089845	1685.166748046875	-702.9206542968751	-427.0860595703126	1510.02001953125	-768.735290527344	-436.2711791992189	1214.130737304688	-759.7172241210939	-286.9539794921876	1472.381469726563	-774.5336914062502	-356.6435241699219	1505.096435546875	-925.3549804687502	-301.8429260253907	1363.114379882813	-1005.784851074219	-261.6925354003907	1349.0927734375	-980.5268554687502	-266.6286926269532	1309.770751953125	-1026.09228515625	-261.1473388671876	1227.0166015625	-1055.824096679688	-280.0446166992188	1186.883911132813	-1006.455993652344	-11.64896965026856	1185.257690429688	-991.3760375976565	-28.61260032653809	1144.927734375	-1040.63330078125	59.60366058349611	1185.797729492188	-1007.642028808594	-340.9859619140626	1497.140014648438	-627.9819335937501	-320.5228271484376	1323.146850585938	-528.0692138671876	-272.3707580566407	1329.37060546875	-534.0436401367189	-277.5761718750001	1271.639892578125	-510.9756164550782	-226.0843353271485	1214.1318359375	-499.2530822753907	7.390417098999025	1190.22119140625	-605.2122802734376	12.31975460052491	1151.6298828125	-550.3345336914064	85.37929534912111	1191.991455078125	-597.4592285156251	-281.8185729980469	1029.556274414063	-889.793395996094	-258.3771972656251	1006.857666015625	-681.4628295898439	-429.5376586914064	1085.719848632813	-764.5737915039064	-437.8856811523439	1055.1767578125	-794.701354980469	-428.7309875488282	1053.047729492188	-737.9729614257814	-245.8577423095704	799.135925292969	-988.2402343750002	-174.118896484375	752.0325927734376	-990.4192504882815	-137.4511108398438	773.9271240234377	-969.154968261719	-170.0896606445313	690.9049072265626	-990.6157836914065	-139.5107574462891	603.5269775390626	-984.4282836914065	-130.9333648681641	456.7754821777345	-964.8624267578127	-197.3650512695313	441.7973022460939	-1020.237609863281	-165.9157409667969	423.4337463378907	-996.8284301757815	-200.8736572265626	349.0543518066407	-967.4182128906252	-314.3715820312501	261.4205017089844	-1000.433959960938	-293.7229919433594	254.3566131591797	-918.2617187500002	-388.6382751464845	256.0679016113282	-948.819030761719	-217.2304382324219	128.6893615722657	-940.5201416015627	-213.2978515625001	130.5592193603516	-978.182067871094	-261.9252319335938	133.672836303711	-1028.946411132813	-301.3776245117188	804.0611572265627	-618.3619384765626	-238.4149627685547	757.8820800781251	-651.9425659179689	-290.0964050292969	674.6943359375001	-627.4913330078126	-328.9498901367188	515.4302368164064	-661.1234741210939	-296.7662048339844	335.6101379394532	-729.2562255859376	-348.0021972656251	255.2563934326172	-672.7213134765626	-315.8057861328126	252.8834533691407	-707.9635620117189	-331.4325256347657	213.6265258789063	-749.2002563476564	-392.2518615722657	128.7207489013672	-704.5645751953126	-379.4251403808594	133.9788208007813	-779.2963867187502	-455.9407348632814	105.7344818115235	-750.4331665039064	-257.8837890625001	52.73373794555665	-780.9792480468752	-252.4923400878907	59.97825622558595	-736.5634765625001	-290.6728515625001	51.23242568969728	-680.1531372070314	-276.9088134765626	1738.316040039063	-715.7600708007814	-262.5646667480469	750.8630371093751	-629.1100463867189	-256.3754577636719	1179.891845703125	-540.8953857421876	
1431	7.15	-419.6720275878907	1684.536987304688	-842.8325195312502	-407.485076904297	1684.799682617188	-703.3204956054689	-426.2926635742189	1510.041015625	-769.4456787109377	-435.6353759765626	1214.162475585938	-760.7191772460939	-286.3355712890626	1472.161254882813	-775.0321044921877	-355.6342468261719	1504.746948242188	-926.4882812500002	-302.9306030273438	1361.01123046875	-1006.216918945313	-262.7993469238282	1346.504272460938	-981.2830200195315	-268.7951354980469	1306.931518554688	-1026.486938476563	-264.6585388183594	1223.677612304688	-1055.4287109375	-285.3059082031251	1184.590942382813	-1006.288146972656	-15.85642337799073	1177.210815429688	-993.0443115234377	-34.16849899291993	1136.903442382813	-1041.802856445313	55.30086517333986	1175.715087890625	-1009.931457519531	-340.3909912109376	1496.87451171875	-628.2993774414064	-322.3614501953126	1321.182495117188	-529.7111816406251	-274.7339782714844	1320.842895507813	-532.5592651367189	-280.5291137695313	1269.003662109375	-512.4277343750001	-230.410873413086	1210.287109375	-500.880584716797	3.132671117782594	1181.747802734375	-605.0825195312501	6.86570978164673	1142.699584960938	-550.3148193359376	81.79384613037111	1180.95166015625	-596.8228149414064	-280.9293518066407	1029.34814453125	-890.4749145507815	-257.7819824218751	1006.869384765625	-682.0747680664064	-428.7666015625001	1085.816284179688	-765.4839477539064	-436.9604797363282	1055.176147460938	-795.6636962890627	-428.2225341796876	1053.038940429688	-738.8972167968751	-246.4277954101563	797.979187011719	-989.0085449218752	-175.6399688720703	750.1564941406251	-991.4274902343752	-138.3967590332032	771.5762329101565	-970.3837890625002	-171.8499450683594	688.7693481445314	-991.2369384765627	-142.5022735595703	601.2051391601564	-985.396423339844	-133.4327545166016	454.2501220703126	-965.7076416015627	-200.5147247314454	439.366424560547	-1021.145324707031	-168.7484283447266	420.9191894531251	-997.6799316406252	-203.4153900146485	346.4205322265626	-968.2103271484377	-315.6494140625001	258.4947814941407	-1000.602661132813	-296.4692687988282	251.7662048339844	-919.3668212890627	-391.1228027343751	253.1974639892579	-950.0040283203127	-219.5265808105469	126.2017669677735	-941.4753417968752	-215.6466827392579	127.9739456176758	-978.7224121093752	-263.9130249023438	130.7355194091797	-1029.474365234375	-301.0588378906251	804.1126708984377	-618.9094848632814	-238.0350036621094	757.8582153320314	-652.4022216796876	-289.8940734863282	674.6562500000001	-627.8836669921876	-328.8319091796876	515.6725463867189	-661.5266113281251	-296.6013793945313	335.6166992187501	-729.4445190429689	-347.9821472167969	255.316635131836	-672.8228759765626	-315.6597595214844	252.8946075439454	-708.0831909179689	-331.3709106445313	213.5852661132813	-749.1876220703126	-392.2748107910157	128.7740783691407	-704.6339721679689	-379.3527832031251	133.922836303711	-779.3176269531252	-455.8551025390626	105.8151626586914	-750.4729003906251	-257.8864440917969	52.7386817932129	-780.982849121094	-252.4950561523438	59.98380279541017	-736.5636596679689	-290.6468811035157	51.2113609313965	-680.1685791015626	-276.7575988769532	1738.334228515625	-716.2855224609376	-262.2291564941407	750.9273071289064	-629.6282348632814	-260.9104919433594	1177.002807617188	-542.9238891601564	
